Coordinates
nRows=288
nColumns=2
inDegrees=yes
endheader
time	ankle_angle_r	
6.3871	  5.004883	
6.42036	  5.052344	
6.45363	  5.062742	
6.4869	  5.093453	
6.52016	  5.063129	
6.55343	  5.126953	
6.58669	  5.051860	
6.61996	  5.081177	
6.65323	  5.112702	
6.68649	  5.065918	
6.71976	  5.127768	
6.75302	  5.127671	
6.78629	  5.126953	
6.81956	  5.157471	
6.85282	  5.142212	
6.88609	  5.141881	
6.91935	  5.157705	
6.95262	  5.218093	
6.98589	  5.187988	
7.01915	  5.142212	
7.05242	  5.173034	
7.08569	  5.187739	
7.11895	  5.187643	
7.15222	  5.232880	
7.18548	  5.172190	
7.21875	  5.157471	
7.25202	  5.217773	
7.28528	  5.186330	
7.31855	  5.170878	
7.35181	  5.231719	
7.38508	  5.125834	
7.41835	  5.171514	
7.45161	  5.156158	
7.48488	  5.082586	
7.51815	  5.123941	
7.55141	  5.157471	
7.58468	  5.018442	
7.61794	  5.092844	
7.65121	  5.094543	
7.68448	  5.004883	
7.71774	  5.061746	
7.75101	  5.050659	
7.78427	  5.046100	
7.81754	  5.065918	
7.85081	  5.065918	
7.88407	  5.053229	
7.91734	  5.086509	
7.9506	  5.114457	
7.98387	  5.096436	
8.01714	  5.136300	
8.0504	  5.111694	
8.08367	  5.123804	
8.11694	  5.187988	
8.1502	  5.199904	
8.18347	  5.157471	
8.21673	  5.203247	
8.25	  5.206880	
8.28327	  5.164930	
8.31653	  5.245197	
8.3498	  5.191911	
8.38306	  5.183969	
8.41633	  5.241998	
8.4496	  5.249023	
8.48286	  5.183679	
8.51613	  5.244617	
8.5494	  5.279541	
8.58266	  5.218506	
8.61593	  5.227899	
8.64919	  5.238558	
8.68246	  5.203247	
8.71573	  5.228778	
8.74899	  5.269374	
8.78226	  5.167831	
8.81552	  5.233765	
8.84879	  5.239138	
8.88206	  5.178200	
8.91532	  5.189430	
8.94859	  5.233765	
8.98185	  5.187988	
9.01512	  5.105837	
9.04839	  5.077825	
9.08165	  5.071968	
9.11492	  5.117841	
9.14819	  5.081177	
9.18145	  5.035400	
9.21472	  5.087614	
9.24798	  5.087710	
9.28125	  5.059288	
9.31452	  5.079372	
9.34778	  5.033789	
9.38105	  5.042321	
9.41431	  5.035400	
9.44758	  4.982510	
9.48085	  5.020142	
9.51411	  5.020142	
9.54738	  4.982220	
9.58065	  5.058160	
9.61391	  5.073451	
9.64718	  5.035400	
9.68044	  5.065596	
9.71371	  5.119582	
9.74698	  5.058643	
9.78024	  5.043481	
9.81351	  5.005979	
9.84677	  5.034111	
9.88004	  4.974365	
9.91331	  5.042192	
9.94657	  4.972496	
9.97984	  4.980963	
10.0131	  5.026643	
10.0464	  5.004883	
10.0796	  4.980673	
10.1129	  5.002047	
10.1462	  4.983510	
10.1794	  4.995642	
10.2127	  5.071839	
10.246	  5.025966	
10.2792	  5.050659	
10.3125	  5.115691	
10.3458	  5.163005	
10.379	  5.136774	
10.4123	  5.172729	
10.4456	  5.172729	
10.4788	  5.157471	
10.5121	  5.208298	
10.5454	  5.172729	
10.5786	  5.182445	
10.6119	  5.213745	
10.6452	  5.187988	
10.6784	  5.181865	
10.7117	  5.214035	
10.745	  5.194499	
10.7782	  5.222784	
10.8115	  5.222687	
10.8448	  5.172729	
10.878	  5.233765	
10.9113	  5.222397	
10.9446	  5.203247	
10.9778	  5.210642	
11.0111	  5.230164	
11.0444	  5.211498	
11.0776	  5.245616	
11.1109	  5.237075	
11.1442	  5.179158	
11.1774	  5.157471	
11.2107	  5.187988	
11.244	  5.096436	
11.2772	  5.200420	
11.3105	  5.187988	
11.3437	  5.099070	
11.377	  5.187988	
11.4103	  5.131835	
11.4435	  5.037745	
11.4768	  5.111694	
11.5101	  5.157471	
11.5433	  5.100543	
11.5766	  5.081177	
11.6099	  5.098296	
11.6431	  5.065918	
11.6764	  5.126953	
11.7097	  5.126953	
11.7429	  5.097909	
11.7762	  5.110317	
11.8095	  5.232484	
11.8427	  5.112878	
11.876	  5.172729	
11.9093	  5.172729	
11.9425	  5.171836	
11.9758	  5.249023	
12.0091	  5.248323	
12.0423	  5.217902	
12.0756	  5.203247	
12.1089	  5.217686	
12.1421	  5.172416	
12.1754	  5.233765	
12.2087	  5.233404	
12.2419	  5.203224	
12.2752	  5.248950	
12.3085	  5.218336	
12.3417	  5.202714	
12.375	  5.248660	
12.4083	  5.189368	
12.4415	  5.187432	
12.4748	  5.204554	
12.5081	  5.189488	
12.5413	  5.202400	
12.5746	  5.188931	
12.6079	  5.144292	
12.6411	  5.096436	
12.6744	  5.187988	
12.7077	  5.064588	
12.7409	  5.105987	
12.7742	  5.084224	
12.8075	  5.130194	
12.8407	  5.038834	
12.874	  5.052473	
12.9073	  5.037311	
12.9405	  5.037407	
12.9738	  5.081177	
13.0071	  5.055060	
13.0403	  5.033103	
13.0736	  5.009670	
13.1069	  5.017651	
13.1401	  5.020142	
13.1734	  5.020142	
13.2067	  4.961887	
13.2399	  5.050659	
13.2732	  5.105747	
13.3065	  5.032330	
13.3397	  5.099603	
13.373	  5.172729	
13.4062	  5.133674	
13.4395	  5.126953	
13.4728	  5.176283	
13.506	  5.157471	
13.5393	  5.180494	
13.5726	  5.199403	
13.6058	  5.146152	
13.6391	  5.168692	
13.6724	  5.207381	
13.7056	  5.210044	
13.7389	  5.164074	
13.7722	  5.201261	
13.8054	  5.172729	
13.8387	  5.177347	
13.872	  5.203247	
13.9052	  5.182351	
13.9385	  5.188524	
13.9718	  5.203247	
14.005	  5.177830	
14.0383	  5.187654	
14.0716	  5.172729	
14.1048	  5.056050	
14.1381	  5.166038	
14.1714	  5.142212	
14.2046	  5.121272	
14.2379	  5.105917	
14.2712	  5.121078	
14.3044	  5.065918	
14.3377	  5.050659	
14.371	  5.081177	
14.4042	  5.126953	
14.4375	  5.107880	
14.4708	  5.111694	
14.504	  5.028849	
14.5373	  5.065918	
14.5706	  5.081177	
14.6038	  5.035400	
14.6371	  5.028462	
14.6704	  5.081177	
14.7036	  5.134084	
14.7369	  5.173532	
14.7702	  5.172729	
14.8034	  5.157471	
14.8367	  5.149730	
14.87	  5.172759	
14.9032	  5.134501	
14.9365	  5.233765	
14.9698	  5.172729	
15.003	  5.195246	
15.0363	  5.187988	
15.0696	  5.218506	
15.1028	  5.172729	
15.1361	  5.257411	
15.1694	  5.249023	
15.2026	  5.196570	
15.2359	  5.235862	
15.2692	  5.249023	
15.3024	  5.218506	
15.3357	  5.242733	
15.369	  5.255217	
15.4022	  5.212409	
15.4355	  5.237023	
15.4687	  5.249023	
15.502	  5.172729	
15.5353	  5.199409	
15.5685	  5.136598	
15.6018	  5.172729	
15.6351	  5.111694	
15.6683	  5.121630	
15.7016	  5.126953	
15.7349	  5.116825	
15.7681	  5.137178	
15.8014	  5.096436	
15.8347	  5.122113	
15.8679	  5.056431	
15.9012	  5.065918	
15.9345	  5.030850	
